<svg width="96" height="96" viewBox="0 0 96 96" fill="none" xmlns="http://www.w3.org/2000/svg">
<g clip-path="url(#clip0)">
<path d="M73.5586 15.9156C73.6004 15.9187 73.6421 15.9217 73.6847 15.9217C73.7568 15.9217 73.8289 15.9156 73.8996 15.9058C75.7898 15.9445 77.3027 17.4862 77.3049 19.3764C77.3049 20.2354 78.0014 20.9318 78.8603 20.9318C79.7192 20.9318 80.4156 20.2354 80.4156 19.3764C80.4118 16.2847 78.2596 13.6099 75.24 12.9447V11.4501C75.24 10.5911 74.5436 9.89473 73.6847 9.89473C72.8257 9.89473 72.1293 10.5911 72.1293 11.4501V13.0153C68.9366 13.8689 66.8709 16.9576 67.3015 20.2346C67.7321 23.5116 70.5253 25.9616 73.8305 25.9616C75.7496 25.9616 77.3049 27.5177 77.3049 29.4368C77.3049 31.3552 75.7496 32.9113 73.8305 32.9113C71.9113 32.9113 70.356 31.3552 70.356 29.4368C70.356 28.5779 69.6596 27.8815 68.8006 27.8815C67.9417 27.8815 67.2453 28.5779 67.2453 29.4368C67.2491 32.4169 69.251 35.0241 72.1293 35.798V37.5022C72.1293 38.3611 72.8257 39.0575 73.6847 39.0575C74.5436 39.0575 75.24 38.3611 75.24 37.5022V35.8694C78.5246 35.1502 80.7399 32.0714 80.3777 28.7283C80.0162 25.3852 77.1933 22.8517 73.8305 22.8524C71.9645 22.8532 70.4312 21.3799 70.3575 19.5154C70.2846 17.651 71.6979 16.0614 73.5586 15.9164V15.9156Z" fill="#267CE2"/>
<path d="M73.9193 2.29036C64.351 2.29036 56.1855 8.53378 53.1264 16.8938H14.5229C13.6678 16.8938 12.9736 17.6646 12.9676 18.519L12.6 73.0807H1.59636C0.737424 73.0807 0 73.7027 0 74.5632V81.4871C0.0197455 88.0054 5.15361 93.3603 11.6651 93.6549V93.6891H59.6865V93.6435C60.0754 93.658 60.2356 93.6891 60.4817 93.6891H60.5151C67.2544 93.6785 72.7126 88.212 72.7126 81.4726V46.4651C73.1014 46.4864 73.513 46.4978 73.9155 46.4978C86.0918 46.4978 96.0003 36.5703 96.0003 24.3933C96.0003 12.2171 86.0963 2.29036 73.9193 2.29036ZM12.2567 90.5784H12.2469C7.21551 90.5716 3.13348 86.5032 3.1107 81.4711V76.1914H48.2158V81.4491C48.2181 84.695 49.5145 87.8064 51.8171 90.0947C51.9804 90.2579 52.1832 90.384 52.354 90.5784H12.2567ZM69.6019 81.4711C69.6026 86.4941 65.5358 90.5685 60.5136 90.5784H60.4839C55.4412 90.5693 51.3516 86.4926 51.3265 81.4506V74.5632C51.3394 74.1652 51.1875 73.7802 50.9058 73.4992C50.624 73.2182 50.239 73.0671 49.8418 73.0807H15.7107L16.0676 20.0045H52.2629C51.9872 21.4284 51.8445 22.8744 51.8369 24.3242C51.8338 27.3901 52.4733 30.4218 53.7142 33.2249H39.0235C38.1638 33.2249 37.4681 33.9214 37.4681 34.7803C37.4681 35.6392 38.1638 36.3356 39.0235 36.3356H55.4017C58.6104 41.3814 63.7397 44.8992 69.6019 46.0763V81.4711ZM73.9193 43.3879C63.442 43.3879 54.9476 34.8942 54.9483 24.4161C54.9483 13.938 63.442 5.44435 73.9201 5.44435C84.3974 5.44435 92.8911 13.9388 92.8911 24.4161C92.8797 34.8889 84.3929 43.3765 73.9193 43.3879Z" fill="#267CE2"/>
<path d="M29.0397 43.5762C26.2943 43.5762 24.0616 45.7384 24.0616 48.3964C24.0616 51.0545 26.2943 53.2167 29.0397 53.2167C31.7851 53.2167 34.0187 51.0545 34.0187 48.3964C34.0187 45.7384 31.7851 43.5762 29.0397 43.5762ZM29.0397 50.106C28.0092 50.106 27.1723 49.3389 27.1723 48.3964C27.1723 47.4532 28.0099 46.6869 29.0397 46.6869C30.0695 46.6869 30.908 47.454 30.908 48.3964C30.908 49.3389 30.0695 50.106 29.0397 50.106Z" fill="#267CE2"/>
<path d="M37.4681 48.3896C37.4681 49.2486 38.1638 49.945 39.0235 49.945H59.7594C60.6183 49.945 61.3148 49.2486 61.3148 48.3896C61.3148 47.5307 60.6183 46.8343 59.7594 46.8343H39.0235C38.1638 46.8343 37.4681 47.5307 37.4681 48.3896Z" fill="#267CE2"/>
<path d="M29.0397 30.0558C26.2943 30.0558 24.0616 32.2187 24.0616 34.8767C24.0616 37.5348 26.2943 39.6969 29.0397 39.6969C31.7851 39.6969 34.0187 37.5348 34.0187 34.8767C34.0187 32.2187 31.7851 30.0558 29.0397 30.0558ZM29.0397 36.5862C28.0092 36.5862 27.1723 35.8192 27.1723 34.8767C27.1723 33.9343 28.0099 33.1665 29.0397 33.1665C30.0695 33.1665 30.908 33.9335 30.908 34.8767C30.908 35.8192 30.0695 36.587 29.0397 36.587V36.5862Z" fill="#267CE2"/>
<path d="M29.0397 57.0951C26.2943 57.0951 24.0616 59.2573 24.0616 61.9153C24.0616 64.5734 26.2943 66.7355 29.0397 66.7355C31.7851 66.7355 34.0187 64.5734 34.0187 61.9153C34.0187 59.2573 31.7851 57.0951 29.0397 57.0951ZM29.0397 63.6248C28.0092 63.6248 27.1723 62.8586 27.1723 61.9153C27.1723 60.9729 28.0099 60.2058 29.0397 60.2058C30.0695 60.2058 30.908 60.9729 30.908 61.9153C30.908 62.8578 30.0695 63.6248 29.0397 63.6248Z" fill="#267CE2"/>
<path d="M59.7594 60.4435H39.0235C38.1638 60.4435 37.4681 61.1399 37.4681 61.9989C37.4681 62.8578 38.1638 63.5542 39.0235 63.5542H59.7594C60.6183 63.5542 61.3148 62.8578 61.3148 61.9989C61.3148 61.1399 60.6183 60.4435 59.7594 60.4435Z" fill="#267CE2"/>
</g>
<defs>
<clipPath id="clip0">
<rect width="96" height="96" fill="white"/>
</clipPath>
</defs>
</svg>
