<svg width="96" height="96" viewBox="0 0 96 96" fill="none" xmlns="http://www.w3.org/2000/svg">
<path d="M86.625 8.25H77.6874V5.625C77.6874 2.52338 75.1641 0 72.0624 0C68.9608 0 66.4374 2.52338 66.4374 5.625V8.25H34.9374V5.625C34.9374 2.52338 32.4141 0 29.3124 0C26.2108 0 23.6874 2.52338 23.6874 5.625V8.31938C23.5281 8.27531 23.361 8.25 23.1876 8.25H15.7168C10.5474 8.25 6.34181 12.4556 6.34181 17.625V49.5624C6.34181 50.598 7.18144 51.4374 8.21681 51.4374C9.25219 51.4374 10.0918 50.598 10.0918 49.5624V27.5625H77.6874C78.7228 27.5625 79.5624 26.7231 79.5624 25.6875C79.5624 24.6519 78.7228 23.8125 77.6874 23.8125H10.0918V17.625C10.0918 14.5234 12.6152 12 15.7168 12H23.1876C23.361 12 23.5281 11.9745 23.6874 11.9306V14.3438C23.6874 17.4454 26.2108 19.9688 29.3124 19.9688C32.4141 19.9688 34.9374 17.4454 34.9374 14.3438V12H66.4374V14.3438C66.4374 17.4454 68.9608 19.9688 72.0624 19.9688C75.1641 19.9688 77.6874 17.4454 77.6874 14.3438V12H86.625C89.7266 12 92.25 14.5234 92.25 17.625V88.8739C92.25 90.7354 90.7356 92.25 88.8739 92.25C87.0122 92.25 85.4977 90.7354 85.4977 88.8739V84.0234C85.4977 82.9879 84.6581 82.1484 83.6227 82.1484H61.8126C60.7772 82.1484 59.9376 82.9879 59.9376 84.0234C59.9376 85.059 60.7772 85.8984 61.8126 85.8984H81.7477V88.8739C81.7477 90.0947 82.0567 91.2444 82.5999 92.25H7.125C5.26406 92.25 3.75 90.7359 3.75 88.875V85.8984H45.7172C46.7526 85.8984 47.5922 85.059 47.5922 84.0234C47.5922 82.9879 46.7526 82.1484 45.7172 82.1484H26.9829C30.2593 79.3268 32.3398 75.153 32.3398 70.5C32.3398 62.0222 25.4426 55.125 16.9648 55.125C8.487 55.125 1.58981 62.0222 1.58981 70.5C1.58981 75.153 3.67031 79.3268 6.94669 82.1484H1.875C0.839625 82.1484 0 82.9879 0 84.0234V88.875C0 92.8037 3.19631 96 7.125 96H88.8739C92.8031 96 96 92.8033 96 88.8739V17.625C96 12.4556 91.7944 8.25 86.625 8.25ZM31.1874 14.3438C31.1874 15.3776 30.3463 16.2188 29.3124 16.2188C28.2786 16.2188 27.4374 15.3776 27.4374 14.3438V5.625C27.4374 4.59113 28.2786 3.75 29.3124 3.75C30.3463 3.75 31.1874 4.59113 31.1874 5.625V14.3438ZM73.9374 14.3438C73.9374 15.3776 73.0963 16.2188 72.0624 16.2188C71.0286 16.2188 70.1874 15.3776 70.1874 14.3438V5.625C70.1874 4.59113 71.0286 3.75 72.0624 3.75C73.0963 3.75 73.9374 4.59113 73.9374 5.625V14.3438ZM5.33981 70.5C5.33981 64.0899 10.5547 58.875 16.9648 58.875C23.3749 58.875 28.5898 64.0899 28.5898 70.5C28.5898 76.9101 23.3749 82.125 16.9648 82.125C10.5547 82.125 5.33981 76.9101 5.33981 70.5Z" fill="#267CE2"/>
<path d="M87.8079 24.3619C87.4594 24.0131 86.9756 23.8125 86.4825 23.8125C85.9892 23.8125 85.5056 24.0131 85.1569 24.3619C84.8081 24.7106 84.6075 25.1944 84.6075 25.6875C84.6075 26.1806 84.8079 26.6644 85.1569 27.0131C85.5058 27.3619 85.9892 27.5625 86.4825 27.5625C86.9756 27.5625 87.4594 27.3619 87.8079 27.0131C88.1567 26.6644 88.3575 26.1806 88.3575 25.6875C88.3575 25.1944 88.1569 24.7106 87.8079 24.3619Z" fill="#267CE2"/>
<path d="M55.9967 82.6969C55.6481 82.3481 55.1644 82.1494 54.6713 82.1494C54.1781 82.1494 53.6944 82.3481 53.3456 82.6969C52.9969 83.0475 52.7963 83.5294 52.7963 84.0225C52.7963 84.5175 52.9967 84.9994 53.3456 85.35C53.6944 85.6988 54.1781 85.8975 54.6713 85.8975C55.1644 85.8975 55.6481 85.6988 55.9967 85.35C56.3455 84.9994 56.5463 84.5156 56.5463 84.0225C56.5463 83.5294 56.3456 83.0475 55.9967 82.6969Z" fill="#267CE2"/>
<path d="M42.421 57C38.4923 57 35.296 60.1963 35.296 64.125C35.296 68.0537 38.4923 71.25 42.421 71.25C46.3496 71.25 49.546 68.0537 49.546 64.125C49.546 60.1963 46.3496 57 42.421 57ZM42.421 67.5C40.56 67.5 39.046 65.9859 39.046 64.125C39.046 62.2641 40.56 60.75 42.421 60.75C44.2819 60.75 45.796 62.2641 45.796 64.125C45.796 65.9859 44.2819 67.5 42.421 67.5Z" fill="#267CE2"/>
<path d="M59.9209 57C55.9922 57 52.7959 60.1963 52.7959 64.125C52.7959 68.0537 55.9922 71.25 59.9209 71.25C63.8496 71.25 67.0459 68.0537 67.0459 64.125C67.0459 60.1963 63.8496 57 59.9209 57ZM59.9209 67.5C58.06 67.5 56.5459 65.9859 56.5459 64.125C56.5459 62.2641 58.06 60.75 59.9209 60.75C61.7818 60.75 63.2959 62.2641 63.2959 64.125C63.2959 65.9859 61.7818 67.5 59.9209 67.5Z" fill="#267CE2"/>
<path d="M77.421 57C73.4923 57 70.296 60.1963 70.296 64.125C70.296 68.0537 73.4923 71.25 77.421 71.25C81.3497 71.25 84.546 68.0537 84.546 64.125C84.546 60.1963 81.3497 57 77.421 57ZM77.421 67.5C75.5601 67.5 74.046 65.9859 74.046 64.125C74.046 62.2641 75.5601 60.75 77.421 60.75C79.282 60.75 80.796 62.2641 80.796 64.125C80.796 65.9859 79.282 67.5 77.421 67.5Z" fill="#267CE2"/>
<path d="M24.921 37.5C20.9923 37.5 17.796 40.6963 17.796 44.625C17.796 48.5537 20.9923 51.75 24.921 51.75C28.8497 51.75 32.046 48.5537 32.046 44.625C32.046 40.6963 28.8497 37.5 24.921 37.5ZM24.921 48C23.0601 48 21.546 46.4859 21.546 44.625C21.546 42.7641 23.0601 41.25 24.921 41.25C26.782 41.25 28.296 42.7641 28.296 44.625C28.296 46.4859 26.782 48 24.921 48Z" fill="#267CE2"/>
<path d="M59.9209 37.5C55.9922 37.5 52.7959 40.6963 52.7959 44.625C52.7959 48.5537 55.9922 51.75 59.9209 51.75C63.8496 51.75 67.0459 48.5537 67.0459 44.625C67.0459 40.6963 63.8496 37.5 59.9209 37.5ZM59.9209 48C58.06 48 56.5459 46.4859 56.5459 44.625C56.5459 42.7641 58.06 41.25 59.9209 41.25C61.7818 41.25 63.2959 42.7641 63.2959 44.625C63.2959 46.4859 61.7818 48 59.9209 48Z" fill="#267CE2"/>
<path d="M77.421 37.5C73.4923 37.5 70.296 40.6963 70.296 44.625C70.296 48.5537 73.4923 51.75 77.421 51.75C81.3497 51.75 84.546 48.5537 84.546 44.625C84.546 40.6963 81.3497 37.5 77.421 37.5ZM77.421 48C75.5601 48 74.046 46.4859 74.046 44.625C74.046 42.7641 75.5601 41.25 77.421 41.25C79.282 41.25 80.796 42.7641 80.796 44.625C80.796 46.4859 79.282 48 77.421 48Z" fill="#267CE2"/>
<path d="M42.421 37.5C38.4923 37.5 35.296 40.6963 35.296 44.625C35.296 48.5537 38.4923 51.75 42.421 51.75C46.3496 51.75 49.546 48.5537 49.546 44.625C49.546 40.6963 46.3496 37.5 42.421 37.5ZM42.421 48C40.56 48 39.046 46.4859 39.046 44.625C39.046 42.7641 40.56 41.25 42.421 41.25C44.2819 41.25 45.796 42.7641 45.796 44.625C45.796 46.4859 44.2819 48 42.421 48Z" fill="#267CE2"/>
<path d="M23.6444 65.9304C22.9121 65.1983 21.7252 65.1983 20.9926 65.9304L14.8865 72.0368L12.7998 69.9501C12.0675 69.2179 10.8806 69.2179 10.148 69.9501C9.41583 70.6823 9.41583 71.8695 10.148 72.6019L13.5607 76.0142C13.9125 76.3658 14.3893 76.5634 14.8865 76.5634C15.3838 76.5634 15.8606 76.3658 16.2123 76.0142L23.6444 68.5821C24.3766 67.8499 24.3766 66.6626 23.6444 65.9304Z" fill="#267CE2"/>
</svg>
