<svg width="96" height="96" viewBox="0 0 96 96" fill="none" xmlns="http://www.w3.org/2000/svg">
<path d="M84.6976 44.4863C81.4309 42.8531 75.3062 42.8342 75.0471 42.8342C74.2705 42.8342 73.6409 43.4638 73.6409 44.2404C73.6409 45.0171 74.2705 45.6467 75.0471 45.6467C76.6276 45.6469 81.2162 45.8903 83.4398 47.0019C83.6417 47.103 83.8562 47.1506 84.0676 47.1506C84.5834 47.1506 85.0801 46.8656 85.3264 46.3731C85.6739 45.6784 85.3923 44.8337 84.6976 44.4863Z" fill="#267CE2"/>
<path d="M91.7085 64.5077L85.9007 62.8483C85.65 62.7767 85.4749 62.5446 85.4749 62.2838V60.3452C85.9474 60.0178 86.3981 59.6514 86.8194 59.2425C88.8613 57.261 89.9857 54.6032 89.9857 51.7584V49.0834L90.5473 47.9604C91.1636 46.7276 91.4893 45.3474 91.4893 43.9693V36.7224C91.4893 35.9458 90.8597 35.3162 90.0831 35.3162H76.5506C71.6299 35.3162 67.6264 39.3197 67.6264 44.2404V44.3242C67.6264 45.4702 67.8973 46.6179 68.4097 47.6428L69.1299 49.0832V51.3801C69.1299 55.0202 70.9238 58.2863 73.6408 60.2516L73.6412 62.2834C73.6412 62.5967 73.6412 62.7264 72.48 63.0583L69.6461 63.8679L61.4484 60.8871C61.4779 60.5002 61.3474 60.1069 61.0652 59.8104L58.4456 57.0583V52.4383C58.7226 52.2101 58.9956 51.9757 59.2601 51.7279C62.5648 48.6304 64.4601 44.2571 64.4601 39.7296V36.0399C65.4579 33.8685 65.9636 31.5707 65.9636 29.2043V14.1686C65.9636 13.392 65.334 12.7624 64.5574 12.7624H43.5069C36.0988 12.7624 30.072 18.7894 30.072 26.1973V29.2046C30.072 31.5711 30.5777 33.8689 31.5756 36.0403V39.2149C31.5756 44.4716 33.9129 49.2075 37.59 52.3298V57.0585L34.9704 59.8106C34.6883 60.1071 34.5578 60.5004 34.5872 60.8873L25.935 64.0333C25.308 64.2613 24.7254 64.5701 24.1965 64.9442L22.8379 64.2649C26.8822 62.5044 28.1634 60.0285 28.2249 59.9055C28.4229 59.5097 28.4229 59.0436 28.2249 58.6478C27.2111 56.6201 27.0883 52.9037 26.9897 49.9176C26.9569 48.9234 26.9258 47.9842 26.8663 47.148C26.3869 40.4029 21.2591 35.3162 14.9385 35.3162C8.61787 35.3162 3.48994 40.4027 3.01069 47.148C2.95125 47.9844 2.92013 48.9236 2.88731 49.9179C2.78869 52.9039 2.66569 56.6199 1.65206 58.6476C1.45406 59.0434 1.45406 59.5095 1.65206 59.9053C1.71356 60.0283 2.99212 62.4992 7.04456 64.2617L3.27075 66.1485C1.25325 67.158 0 69.1858 0 71.4412V81.8304C0 82.6071 0.629625 83.2367 1.40625 83.2367C2.18288 83.2367 2.8125 82.6071 2.8125 81.8304V71.4412C2.8125 70.2578 3.47006 69.1937 4.5285 68.6644L9.22781 66.3148L10.8624 67.8683C12.0054 68.9544 13.4717 69.4973 14.9385 69.4973C16.4049 69.4973 17.8719 68.9541 19.0146 67.8683L20.649 66.315L22.1813 67.0811C21.4598 68.2356 21.0502 69.5893 21.0502 71.0074V81.8308C21.0502 82.6074 21.6799 83.2371 22.4565 83.2371C23.2331 83.2371 23.8627 82.6074 23.8627 81.8308V71.0074C23.8627 69.0769 25.0817 67.3365 26.8961 66.6767L36.0184 63.3596L39.8158 69.0561C40.3013 69.7843 41.0792 70.2514 41.9501 70.3376C42.0472 70.3472 42.1438 70.3519 42.2402 70.3519C43.0086 70.3519 43.7445 70.0494 44.2946 69.4995L46.6114 67.1828V81.831C46.6114 82.6076 47.241 83.2373 48.0176 83.2373C48.7943 83.2373 49.4239 82.6076 49.4239 81.831V67.1828L51.7406 69.4995C52.2906 70.0496 53.0265 70.3521 53.7951 70.3521C53.8913 70.3521 53.988 70.3474 54.0849 70.3378C54.9561 70.2516 55.734 69.7845 56.2194 69.0563L60.0171 63.36L69.1391 66.6771C70.9534 67.3369 72.1725 69.0773 72.1725 71.0078V81.8312C72.1725 82.6078 72.8021 83.2374 73.5788 83.2374C74.3554 83.2374 74.985 82.6078 74.985 81.8312V71.0078C74.985 69.0525 74.2082 67.2188 72.9051 65.8626L73.2525 65.7634C73.6029 65.6633 74.0811 65.5262 74.5611 65.2909L78.1515 68.8813V81.8312C78.1515 82.6078 78.7811 83.2374 79.5578 83.2374C80.3344 83.2374 80.964 82.6078 80.964 81.8312V68.8813L84.5295 65.3158C84.7191 65.4122 84.9182 65.4936 85.1278 65.5534L90.9358 67.2127C92.2614 67.5915 93.1875 68.8191 93.1875 70.1979V81.8312C93.1875 82.6078 93.8171 83.2374 94.5938 83.2374C95.3704 83.2374 96 82.6078 96 81.8312V70.1979C96 67.5696 94.2353 65.2297 91.7085 64.5077ZM9.02156 62.0239C6.39113 61.0774 5.07169 59.8155 4.50844 59.1264C4.89244 58.1226 5.14144 56.9728 5.31 55.7591C6.0855 57.6186 7.38431 59.2059 9.02156 60.3384V62.0239ZM17.0775 65.8298C15.8781 66.9694 13.9991 66.9692 12.8001 65.8296L11.4923 64.5868C11.7129 64.1734 11.8343 63.7046 11.8343 63.2136V61.7147C12.8153 62.0213 13.8581 62.1866 14.9389 62.1866C16.0183 62.1866 17.0606 62.0205 18.0433 61.7156L18.0431 63.2134C18.0431 63.7046 18.1642 64.1736 18.3851 64.5872L17.0775 65.8298ZM14.9393 59.3741C10.74 59.3741 7.32394 55.9579 7.32394 51.7588C7.32394 50.9822 6.69431 50.3526 5.91769 50.3526C5.83894 50.3526 5.76206 50.3606 5.68687 50.3732C5.691 50.2523 5.69494 50.1311 5.69906 50.0113C5.73038 49.0444 5.76056 48.1311 5.81625 47.3477C5.99587 44.8209 7.00556 42.4926 8.65931 40.7912C10.3279 39.0744 12.558 38.1291 14.9389 38.1291C17.3197 38.1291 19.5497 39.0744 21.2184 40.7912C22.8722 42.4926 23.8819 44.8209 24.0615 47.3477C24.117 48.1309 24.1474 49.044 24.1792 50.0107C24.1821 50.0938 24.1849 50.178 24.1877 50.2616C22.6577 47.9044 20.2948 46.1672 17.2418 45.1862C14.4212 44.28 11.9953 44.3361 11.8929 44.3387C11.5247 44.349 11.1752 44.5031 10.9196 44.7683L8.38238 47.3996C7.84331 47.9588 7.85944 48.849 8.41856 49.3881C8.97769 49.9271 9.86794 49.9108 10.407 49.3519L12.5182 47.1624C14.3364 47.2513 20.1859 47.9316 22.4608 52.941C21.8884 56.6325 18.7155 59.3741 14.9393 59.3741ZM20.8554 62.0286L20.8556 60.3514C22.4916 59.2251 23.7923 57.6407 24.5683 55.7672C24.7369 56.9781 24.9857 58.1252 25.3689 59.1268C24.8089 59.8093 23.4832 61.0824 20.8554 62.0286ZM34.3881 39.2147V35.7257C34.3881 35.514 34.3402 35.3049 34.2482 35.1143C33.3433 33.2404 32.8845 31.2521 32.8845 29.2046V26.1975C32.8845 20.3402 37.6498 15.5751 43.5069 15.5751H63.1511V29.2048C63.1511 31.2523 62.6923 33.2406 61.7874 35.1144C61.6954 35.3051 61.6476 35.5142 61.6476 35.7259V39.7299C61.6476 43.5383 60.1166 47.0706 57.3367 49.6763C56.9897 50.0014 56.6295 50.3063 56.2571 50.5903C56.2489 50.5959 56.241 50.6021 56.2329 50.6079C53.6287 52.5851 50.439 53.5461 47.1079 53.3303C39.9752 52.8684 34.3881 46.6682 34.3881 39.2147ZM42.306 67.5105C42.2962 67.5203 42.2736 67.5433 42.2276 67.5384C42.1819 67.5339 42.1639 67.5071 42.1562 67.4955L37.7827 60.9353L39.1901 59.4564L45.8248 63.9915L42.306 67.5105ZM48.0178 62.0837L40.4025 56.8783V54.2533C42.3729 55.3185 44.5793 55.9847 46.9258 56.1366C47.2965 56.1606 47.6649 56.1724 48.0322 56.1724C50.7212 56.1724 53.3091 55.5296 55.6331 54.3096V56.8783L48.0178 62.0837ZM53.8794 67.4959C53.8717 67.5075 53.8538 67.5343 53.808 67.5388C53.7621 67.5446 53.7396 67.5204 53.7296 67.5109L50.2108 63.9921L56.8455 59.4568L58.2531 60.9356L53.8794 67.4959ZM79.5578 66.3094L76.3665 63.1183C76.4222 62.8654 76.4537 62.5884 76.4535 62.283L76.4533 61.6896C77.3389 61.9802 78.2722 62.1527 79.2381 62.1816C79.3464 62.1849 79.4539 62.1864 79.5619 62.1864C80.6291 62.1864 81.6709 62.0252 82.6624 61.7175V62.2838C82.6624 62.5643 82.6976 62.8391 82.764 63.1033L79.5578 66.3094ZM84.8608 57.2243C83.3704 58.6706 81.4014 59.4345 79.3226 59.3704C75.2531 59.2483 71.9424 55.6639 71.9424 51.3804V48.7515C71.9424 48.5331 71.8916 48.3178 71.7939 48.1226L70.9252 46.3853C70.6071 45.7487 70.4389 45.0362 70.4389 44.3244V44.2406C70.4389 40.8705 73.1807 38.1289 76.5506 38.1289H88.6768V43.9695C88.6768 44.9134 88.4537 45.8586 88.0316 46.7029L87.3217 48.1226C87.2241 48.318 87.1732 48.5331 87.1732 48.7515V51.7586C87.1732 53.8361 86.352 55.7771 84.8608 57.2243Z" fill="#267CE2"/>
<path d="M88.5793 71.4026C87.8027 71.4026 87.1731 72.0323 87.1731 72.8089V81.8304C87.1731 82.6071 87.8027 83.2367 88.5793 83.2367C89.356 83.2367 89.9856 82.6071 89.9856 81.8304V72.8089C89.9856 72.0324 89.356 71.4026 88.5793 71.4026Z" fill="#267CE2"/>
<path d="M7.42065 73.2615C6.64403 73.2615 6.0144 73.8911 6.0144 74.6677V81.8304C6.0144 82.6071 6.64403 83.2367 7.42065 83.2367C8.19728 83.2367 8.8269 82.6071 8.8269 81.8304V74.6677C8.8269 73.8913 8.19728 73.2615 7.42065 73.2615Z" fill="#267CE2"/>
<path d="M59.5373 29.7141C54.2187 24.3954 43.0907 25.4122 38.5529 26.0962C37.1236 26.3117 36.0863 27.5212 36.0863 28.9723V32.2119C36.0863 32.9886 36.7159 33.6182 37.4926 33.6182C38.2692 33.6182 38.8988 32.9886 38.8988 32.2119V28.9721C38.8988 28.9243 38.9303 28.8834 38.9723 28.8771C40.7849 28.6039 44.3817 28.1824 48.1082 28.4308C52.4935 28.7227 55.6698 29.8236 57.5487 31.7027C58.0979 32.2519 58.9883 32.2519 59.5373 31.7027C60.0865 31.1535 60.0865 30.2631 59.5373 29.7141Z" fill="#267CE2"/>
<path d="M31.4783 74.4099C30.7016 74.4099 30.072 75.0396 30.072 75.8162V81.8306C30.072 82.6073 30.7016 83.2369 31.4783 83.2369C32.2549 83.2369 32.8845 82.6073 32.8845 81.8306V75.8162C32.8845 75.0397 32.2549 74.4099 31.4783 74.4099Z" fill="#267CE2"/>
<path d="M64.5574 74.4099C63.7807 74.4099 63.1511 75.0396 63.1511 75.8162V81.8306C63.1511 82.6073 63.7807 83.2369 64.5574 83.2369C65.334 83.2369 65.9636 82.6073 65.9636 81.8306V75.8162C65.9636 75.0397 65.334 74.4099 64.5574 74.4099Z" fill="#267CE2"/>
</svg>
