<svg width="96" height="96" viewBox="0 0 96 96" fill="none" xmlns="http://www.w3.org/2000/svg">
<g clip-path="url(#clip0)">
<path d="M91.5748 92.25H87.4624V32.538C87.4624 29.7587 85.2011 27.4976 82.422 27.4976H73.23C70.4507 27.4976 68.1896 29.7589 68.1896 32.538V92.25H57.7474V59.5922C57.7474 56.8129 55.4863 54.5518 52.707 54.5518H43.515C40.7357 54.5518 38.4746 56.8131 38.4746 59.5922V92.25H28.0324V75.3368C28.0324 72.5574 25.7711 70.2964 22.992 70.2964H13.7998C11.0205 70.2964 8.75942 72.5576 8.75942 75.3368V92.25H4.42517C3.38961 92.25 2.55017 93.0894 2.55017 94.125C2.55017 95.1606 3.38961 96 4.42517 96H91.5748C92.6104 96 93.4498 95.1606 93.4498 94.125C93.4498 93.0894 92.6104 92.25 91.5748 92.25ZM24.282 92.25H12.5092V75.3368C12.5092 74.6252 13.088 74.0464 13.7996 74.0464H22.9916C23.7032 74.0464 24.282 74.6252 24.282 75.3368V92.25ZM53.9972 92.25H42.2244V59.5922C42.2244 58.8806 42.8032 58.3018 43.5148 58.3018H52.7068C53.4182 58.3018 53.9972 58.8806 53.9972 59.5922V92.25ZM83.7124 92.25H71.9396V32.538C71.9396 31.8264 72.5184 31.2476 73.23 31.2476H82.422C83.1335 31.2476 83.7124 31.8264 83.7124 32.538V92.25Z" fill="#267CE2"/>
<path d="M87.4579 1.97175C87.4841 1.46006 87.3041 0.93975 86.9134 0.549C86.5226 0.15825 86.0023 -0.0219375 85.4906 0.0045C85.4605 0.0031875 85.4306 0 85.3999 0H74.0561C73.0206 0 72.1811 0.839438 72.1811 1.875C72.1811 2.91056 73.0206 3.75 74.0561 3.75H81.0606L62.5249 22.2859L55.5349 15.2959C55.1833 14.9443 54.7063 14.7467 54.2091 14.7467C53.7118 14.7467 53.2348 14.9443 52.8833 15.2959L19.1766 49.0027C18.4444 49.7349 18.4444 50.9222 19.1766 51.6546C19.5428 52.0204 20.0226 52.2034 20.5024 52.2034C20.9822 52.2034 21.4622 52.0204 21.8282 51.6542L54.2091 19.2731L61.1991 26.2631C61.9313 26.9953 63.1185 26.9953 63.8509 26.2631L83.7124 6.40181V12.7412C83.7124 13.7768 84.5518 14.6162 85.5874 14.6162C86.623 14.6162 87.4624 13.7768 87.4624 12.7412V2.0625C87.4624 2.03194 87.4592 2.00213 87.4579 1.97175Z" fill="#267CE2"/>
<path d="M14.1825 58.7456C15.218 58.7456 16.0575 57.9062 16.0575 56.8706C16.0575 55.8351 15.218 54.9956 14.1825 54.9956C13.147 54.9956 12.3075 55.8351 12.3075 56.8706C12.3075 57.9062 13.147 58.7456 14.1825 58.7456Z" fill="#267CE2"/>
</g>
<defs>
<clipPath id="clip0">
<rect width="96" height="96" fill="white"/>
</clipPath>
</defs>
</svg>
