<svg width="96" height="96" viewBox="0 0 96 96" fill="none" xmlns="http://www.w3.org/2000/svg">
<g clip-path="url(#clip0)">
<path d="M94.4516 24.1928H69.5874L48.9738 7.50604C48.406 7.04637 47.594 7.04637 47.0262 7.50604L26.4125 24.1928H1.54839C0.693296 24.1928 0 24.8861 0 25.7412V87.6767C0 88.5317 0.693296 89.225 1.54839 89.225H94.4516C95.3067 89.225 96 88.5317 96 87.6767V25.7412C96 24.8861 95.3067 24.1928 94.4516 24.1928ZM48 10.7019L64.6671 24.1928H31.3329L48 10.7019ZM92.9032 86.1283H3.09677V27.2896H22.5862L19.1537 30.0771C16.6331 28.215 13.1212 28.5189 10.9582 30.7855C8.79511 33.0522 8.65524 36.5746 10.6331 39.0053C12.6109 41.436 16.088 42.0159 18.747 40.3586C21.4068 38.7014 22.4183 35.3248 21.1074 32.4783L27.5088 27.2896H68.4912L74.8926 32.4708C73.562 35.3324 74.5698 38.7376 77.2439 40.4138C79.9188 42.0907 83.4224 41.5139 85.4183 39.0688C87.4143 36.6237 87.2782 33.0748 85.1 30.7901C82.9219 28.506 79.3843 28.1998 76.8463 30.0771L73.4138 27.2896H92.9032V86.1283ZM18.5806 35.0315C18.5935 36.4052 17.7089 37.6255 16.4002 38.0413C15.0907 38.4564 13.6641 37.9687 12.8831 36.8392C12.1021 35.7097 12.1497 34.2021 13.001 33.124C13.8516 32.0466 15.3062 31.6497 16.5862 32.1472L14.5101 33.8286C14.064 34.1711 13.8387 34.7291 13.9226 35.2855C14.0058 35.8412 14.3838 36.3092 14.9108 36.5058C15.4378 36.7031 16.0297 36.5995 16.4577 36.2344L18.533 34.5559C18.561 34.7132 18.5776 34.872 18.5806 35.0315ZM79.5423 36.2344C79.9703 36.5995 80.5622 36.7031 81.0892 36.5058C81.6162 36.3092 81.9942 35.8412 82.0774 35.2855C82.1613 34.7291 81.936 34.1711 81.4899 33.8286L79.4138 32.1472C80.6817 31.6641 82.1159 32.0625 82.9529 33.13C83.7906 34.1976 83.8352 35.6862 83.0633 36.8022C82.2921 37.9181 80.8836 38.402 79.5892 37.996C78.2949 37.59 77.4156 36.3886 77.4193 35.0315C77.4224 34.872 77.439 34.7132 77.467 34.5559L79.5423 36.2344Z" fill="#267CE2"/>
<path d="M18.5806 67.5476C19.4357 67.5476 20.129 66.8543 20.129 65.9992V58.2573H20.5622L23.3059 66.4884C23.5766 67.3012 24.4544 67.7404 25.2664 67.4705C26.0791 67.1998 26.5184 66.3228 26.2485 65.5101L23.8254 58.2573H24.7742C25.6293 58.2573 26.3226 57.564 26.3226 56.7089V48.967C26.3226 48.1119 25.6293 47.4186 24.7742 47.4186H18.5806C17.7256 47.4186 17.0323 48.1119 17.0323 48.967V65.9992C17.0323 66.8543 17.7256 67.5476 18.5806 67.5476ZM23.2258 55.1605H20.129V50.5154H23.2258V55.1605Z" fill="#267CE2"/>
<path d="M71.2258 67.5476H77.4194C78.2745 67.5476 78.9678 66.8543 78.9678 65.9993V56.7089C78.9678 55.8538 78.2745 55.1605 77.4194 55.1605H72.7742V50.5154H75.871C75.871 51.3705 76.5643 52.0638 77.4194 52.0638C78.2745 52.0638 78.9678 51.3705 78.9678 50.5154V48.967C78.9678 48.1119 78.2745 47.4186 77.4194 47.4186H71.2258C70.3707 47.4186 69.6774 48.1119 69.6774 48.967V56.7089C69.6774 57.564 70.3707 58.2573 71.2258 58.2573H75.871V64.4509H72.7742V62.9025C72.7742 62.0474 72.0809 61.3541 71.2258 61.3541C70.3707 61.3541 69.6774 62.0474 69.6774 62.9025V65.9993C69.6774 66.8543 70.3707 67.5476 71.2258 67.5476Z" fill="#267CE2"/>
<path d="M55.7419 67.5476C56.597 67.5476 57.2903 66.8543 57.2903 65.9993V50.5154H58.8387V59.8057C58.8387 60.6608 59.532 61.3541 60.3871 61.3541C61.2422 61.3541 61.9355 60.6608 61.9355 59.8057V50.5154H63.4839V65.9993C63.4839 66.8543 64.1772 67.5476 65.0322 67.5476C65.8873 67.5476 66.5806 66.8543 66.5806 65.9993V48.967C66.5806 48.1119 65.8873 47.4186 65.0322 47.4186H55.7419C54.8868 47.4186 54.1935 48.1119 54.1935 48.967V65.9993C54.1935 66.8543 54.8868 67.5476 55.7419 67.5476Z" fill="#267CE2"/>
<path d="M30.9677 67.5476H37.1613C38.0164 67.5476 38.7097 66.8543 38.7097 65.9993V48.967C38.7097 48.1119 38.0164 47.4186 37.1613 47.4186H30.9677C30.1126 47.4186 29.4193 48.1119 29.4193 48.967V65.9993C29.4193 66.8543 30.1126 67.5476 30.9677 67.5476ZM32.5161 50.5154H35.6129V64.4509H32.5161V50.5154Z" fill="#267CE2"/>
<path d="M43.3548 67.5476H49.5484C50.4035 67.5476 51.0968 66.8543 51.0968 65.9993V48.967C51.0968 48.1119 50.4035 47.4186 49.5484 47.4186H43.3548C42.4998 47.4186 41.8065 48.1119 41.8065 48.967V65.9993C41.8065 66.8543 42.4998 67.5476 43.3548 67.5476ZM44.9032 50.5154H48V64.4509H44.9032V50.5154Z" fill="#267CE2"/>
<path d="M18.5806 73.7412H77.4194C78.2744 73.7412 78.9677 73.0479 78.9677 72.1928C78.9677 71.3377 78.2744 70.6444 77.4194 70.6444H18.5806C17.7256 70.6444 17.0323 71.3377 17.0323 72.1928C17.0323 73.0479 17.7256 73.7412 18.5806 73.7412Z" fill="#267CE2"/>
<path d="M61.9355 75.2896H18.5806C17.7256 75.2896 17.0323 75.9829 17.0323 76.838C17.0323 77.693 17.7256 78.3863 18.5806 78.3863H61.9355C62.7906 78.3863 63.4839 77.693 63.4839 76.838C63.4839 75.9829 62.7906 75.2896 61.9355 75.2896Z" fill="#267CE2"/>
<path d="M68.129 75.2896H66.5806C65.7256 75.2896 65.0323 75.9829 65.0323 76.838C65.0323 77.693 65.7256 78.3863 66.5806 78.3863H68.129C68.9841 78.3863 69.6774 77.693 69.6774 76.838C69.6774 75.9829 68.9841 75.2896 68.129 75.2896Z" fill="#267CE2"/>
<path d="M83.6129 81.4831H71.2258C70.3707 81.4831 69.6774 82.1764 69.6774 83.0315C69.6774 83.8866 70.3707 84.5799 71.2258 84.5799H83.6129C84.468 84.5799 85.1613 83.8866 85.1613 83.0315C85.1613 82.1764 84.468 81.4831 83.6129 81.4831Z" fill="#267CE2"/>
<path d="M88.258 84.5799H89.8064C90.6615 84.5799 91.3548 83.8866 91.3548 83.0315C91.3548 82.1764 90.6615 81.4831 89.8064 81.4831H88.258C87.403 81.4831 86.7097 82.1764 86.7097 83.0315C86.7097 83.8866 87.403 84.5799 88.258 84.5799Z" fill="#267CE2"/>
</g>
<defs>
<clipPath id="clip0">
<rect width="96" height="96" fill="white"/>
</clipPath>
</defs>
</svg>
