<svg width="96" height="96" viewBox="0 0 96 96" fill="none" xmlns="http://www.w3.org/2000/svg">
<g clip-path="url(#clip0)">
<path d="M16.8845 74.2405C15.5405 74.2405 14.2485 74.5759 13.1023 75.2058C7.06421 67.4656 3.75 57.8503 3.75 48C3.75 23.6001 23.6001 3.75 48 3.75C50.9663 3.75 53.9312 4.04517 56.8125 4.62744C57.8262 4.83252 58.8164 4.17627 59.0215 3.16113C59.2266 2.146 58.5703 1.15723 57.5552 0.951416C54.4299 0.320068 51.2153 0 48 0C35.179 0 23.1248 4.99292 14.0588 14.0588C4.99292 23.1248 0 35.179 0 48C0 58.7849 3.66211 69.3098 10.3293 77.7473C9.47095 79.0298 9.00952 80.5371 9.00952 82.1155C9.00952 84.219 9.8291 86.1965 11.3167 87.6833C12.8035 89.1709 14.781 89.9905 16.8845 89.9905C18.988 89.9905 20.9656 89.1709 22.4531 87.6833C23.9407 86.1965 24.7595 84.2183 24.7595 82.1147C24.7595 80.012 23.9407 78.0337 22.4531 76.5469C20.9656 75.0593 18.988 74.2405 16.8845 74.2405ZM19.801 85.032C19.0225 85.8113 17.9861 86.2405 16.8845 86.2405C15.783 86.2405 14.7473 85.8113 13.968 85.032C13.1887 84.2527 12.7595 83.217 12.7595 82.1155C12.7595 81.0132 13.1887 79.9775 13.968 79.1982C14.7466 78.4189 15.783 77.9905 16.8845 77.9905C17.9861 77.9905 19.0217 78.4197 19.801 79.1982C20.5803 79.9775 21.0095 81.0132 21.0095 82.1155C21.0095 83.217 20.5803 84.2527 19.801 85.032Z" fill="#267CE2"/>
<path d="M85.6692 18.2505C87.7075 15.1926 87.3801 11.012 84.684 8.31592C83.1965 6.8291 81.219 6.00952 79.1154 6.00952C77.0119 6.00952 75.0344 6.8291 73.5468 8.31592C72.0593 9.80347 71.2404 11.781 71.2404 13.8845C71.2404 15.988 72.0593 17.9656 73.5468 19.4531C75.0344 20.9407 77.0119 21.7595 79.1154 21.7595C80.4594 21.7595 81.7514 21.4241 82.8977 20.7942C88.9358 28.5352 92.25 38.1497 92.25 48C92.25 72.3999 72.3999 92.25 48 92.25C45.063 92.25 42.1259 91.9607 39.2717 91.3894C38.2566 91.1865 37.2685 91.845 37.0649 92.8601C36.862 93.876 37.5205 94.8633 38.5356 95.0669C41.6316 95.6858 44.8161 96 48 96C60.821 96 72.8752 91.0071 81.9411 81.9412C91.007 72.8752 96 60.821 96 48C96 37.2144 92.3371 26.6887 85.6692 18.2505ZM76.1989 16.8018C75.4196 16.0225 74.9904 14.9868 74.9904 13.8845C74.9904 12.783 75.4196 11.7473 76.1989 10.968C76.9775 10.1887 78.0139 9.75952 79.1154 9.75952C80.217 9.75952 81.2534 10.1887 82.0327 10.968C83.6403 12.5764 83.6403 15.1934 82.0327 16.8018C81.2534 17.5803 80.217 18.0095 79.1154 18.0095C78.0131 18.0095 76.9775 17.5803 76.1989 16.8018Z" fill="#267CE2"/>
<path d="M40.2627 80.25C40.2627 81.2856 41.1028 82.125 42.1377 82.125H53.8616C54.8972 82.125 55.7366 81.2856 55.7366 80.25V76.615C58.2019 75.9514 60.5588 74.9744 62.7737 73.6985L65.3401 76.2649C65.6917 76.6165 66.1685 76.8142 66.6665 76.8142C67.1631 76.8142 67.6406 76.6165 67.9922 76.2642L76.2788 67.9717C77.0105 67.2393 77.0105 66.052 76.2788 65.3203L73.7153 62.7568C74.9912 60.542 75.9683 58.1851 76.6318 55.7197H80.2529C81.2886 55.7197 82.1279 54.8804 82.1279 53.8447V42.1208C82.1279 41.0852 81.2886 40.2458 80.2529 40.2458H76.6311C75.9675 37.7812 74.9912 35.4243 73.7153 33.2095L76.2649 30.6599C76.6165 30.3083 76.8142 29.8308 76.8142 29.3335C76.8135 28.8362 76.6157 28.3586 76.2642 28.0071L67.9709 19.7205C67.2393 18.9888 66.052 18.9888 65.3196 19.7212L62.7737 22.2678C60.5588 20.9919 58.2019 20.0149 55.7366 19.3513V15.75C55.7366 14.7144 54.8972 13.875 53.8616 13.875H42.1377C41.1028 13.875 40.2627 14.7144 40.2627 15.75V19.3521C37.7981 20.0149 35.4412 20.9919 33.2263 22.2678L30.6797 19.7212C29.948 18.9895 28.7607 18.9888 28.0283 19.7205L19.7358 28.0078C19.3835 28.3594 19.1858 28.8362 19.1858 29.3335C19.1858 29.8308 19.3835 30.3083 19.7351 30.6599L22.2847 33.2095C21.0088 35.4243 20.0317 37.7805 19.3682 40.2458H15.7537C14.718 40.2458 13.8787 41.0852 13.8787 42.1201L13.8721 53.844C13.8713 54.3413 14.0691 54.8188 14.4207 55.1704C14.7722 55.522 15.249 55.7197 15.7471 55.7197H19.3682C20.0317 58.1851 21.0088 60.542 22.2847 62.7568L19.7212 65.3203C18.9895 66.052 18.9888 67.2393 19.7212 67.9717L28.0078 76.2642C28.3594 76.6157 28.8362 76.8142 29.3335 76.8142H29.3342C29.8315 76.8142 30.3084 76.6165 30.6599 76.2649L33.2256 73.6985C35.4412 74.9744 37.7981 75.9514 40.2627 76.615V80.25ZM33.9609 69.7551C33.219 69.2754 32.2427 69.3794 31.6172 70.0042L29.3342 72.2871L23.6982 66.6467L25.979 64.3652C26.6038 63.7405 26.7078 62.7642 26.228 62.0222C24.5281 59.3914 23.3328 56.5078 22.6765 53.4507C22.4905 52.5872 21.7273 51.9697 20.8433 51.9697H17.6228L17.6272 43.9958H20.8433C21.7273 43.9958 22.4905 43.3792 22.6765 42.5149C23.3328 39.4585 24.5281 36.575 26.228 33.9441C26.7078 33.2021 26.6038 32.2258 25.979 31.6011L23.7129 29.3342L29.3533 23.6982L31.6172 25.9629C32.2427 26.5876 33.2183 26.6909 33.9609 26.2119C36.5911 24.512 39.4746 23.3167 42.5317 22.6604C43.3953 22.4744 44.0127 21.7104 44.0127 20.8271V17.625H51.9866V20.8264C51.9866 21.7104 52.6033 22.4744 53.4675 22.6597C56.5239 23.3167 59.4082 24.5112 62.0383 26.2112C62.7803 26.6909 63.7566 26.5876 64.3813 25.9622L66.646 23.6982L72.2864 29.3342L70.0203 31.6003C69.3948 32.2258 69.2915 33.2021 69.7712 33.9441C71.4712 36.575 72.6658 39.4585 73.3228 42.5149C73.5081 43.3792 74.272 43.9958 75.156 43.9958H78.3779V51.9697H75.156C74.272 51.9697 73.5088 52.5872 73.3228 53.4507C72.6665 56.5071 71.4712 59.3914 69.7712 62.0215C69.2915 62.7642 69.3955 63.7405 70.0203 64.3652L72.301 66.646L66.665 72.2864L64.3821 70.0042C63.7566 69.3787 62.7803 69.2754 62.0383 69.7551C59.4075 71.4551 56.5239 72.6497 53.4675 73.3066C52.6033 73.4927 51.9866 74.2559 51.9866 75.1399V78.375H44.0127V75.1399C44.0127 74.2566 43.3953 73.4927 42.5317 73.3066C39.4753 72.6504 36.5918 71.4551 33.9609 69.7551Z" fill="#267CE2"/>
<path d="M63.4929 48C63.4929 39.457 56.543 32.5071 48 32.5071C39.457 32.5071 32.5071 39.457 32.5071 48C32.5071 56.543 39.457 63.4929 48 63.4929C56.543 63.4929 63.4929 56.543 63.4929 48ZM36.2571 48C36.2571 41.5247 41.5247 36.2571 48 36.2571C54.4753 36.2571 59.7429 41.5254 59.7429 48C59.7429 54.4746 54.4753 59.7429 48 59.7429C41.5247 59.7429 36.2571 54.4753 36.2571 48Z" fill="#267CE2"/>
<path d="M65.2646 7.09131C65.7583 7.09131 66.2417 6.89062 66.5903 6.54199C66.939 6.19116 67.1396 5.70776 67.1396 5.21411C67.1396 4.72339 66.9397 4.23926 66.5903 3.88843C66.2417 3.53979 65.7583 3.33911 65.2646 3.33911C64.7695 3.33911 64.2883 3.53979 63.9397 3.88843C63.5903 4.23926 63.3896 4.72119 63.3896 5.21411C63.3896 5.70923 63.5903 6.19116 63.9397 6.54199C64.2883 6.89062 64.7695 7.09131 65.2646 7.09131Z" fill="#267CE2"/>
<path d="M30.8174 88.9424C30.3245 88.9424 29.8403 89.1431 29.4917 89.4917C29.1431 89.8403 28.9424 90.3245 28.9424 90.8174C28.9424 91.3125 29.1431 91.7944 29.4917 92.1431C29.8403 92.4917 30.3245 92.6924 30.8174 92.6924C31.3103 92.6924 31.7944 92.4917 32.1431 92.1431C32.4917 91.7944 32.6924 91.3103 32.6924 90.8174C32.6924 90.3245 32.4917 89.8403 32.1431 89.4917C31.7944 89.1431 31.3103 88.9424 30.8174 88.9424Z" fill="#267CE2"/>
</g>
<defs>
<clipPath id="clip0">
<rect width="96" height="96" fill="white"/>
</clipPath>
</defs>
</svg>
