<svg width="96" height="96" viewBox="0 0 96 96" fill="none" xmlns="http://www.w3.org/2000/svg">
<path d="M96 64.9688C96 50.9758 86.5715 38.7502 73.2759 35.0662C72.4402 15.5889 56.3357 0 36.6562 0C16.4436 0 0 16.4436 0 36.6562C0 43.2437 1.75342 49.6575 5.08301 55.2883L0.134766 73.177L18.0242 68.2295C23.2002 71.2903 29.0391 73.0144 35.0654 73.2744C38.7488 86.5708 50.9751 96 64.9688 96C70.5542 96 75.9858 94.5125 80.7583 91.686L95.8645 95.8645L91.686 80.7583C94.5125 75.9858 96 70.5542 96 64.9688ZM18.9119 62.1475L8.20239 65.1101L11.165 54.4006L10.4897 53.3445C7.30737 48.3655 5.625 42.5947 5.625 36.6562C5.625 19.5454 19.5454 5.625 36.6562 5.625C53.7671 5.625 67.6875 19.5454 67.6875 36.6562C67.6875 53.7671 53.7671 67.6875 36.6562 67.6875C30.7178 67.6875 24.9478 66.0051 19.968 62.8228L18.9119 62.1475ZM87.7976 87.7976L79.8508 85.5989L78.7896 86.2896C74.6755 88.9622 69.8958 90.375 64.9688 90.375C53.9707 90.375 44.3064 83.2639 40.8823 73.0671C57.7236 71.1255 71.1255 57.7236 73.0679 40.8816C83.2639 44.3064 90.375 53.9707 90.375 64.9688C90.375 69.8958 88.9622 74.6755 86.2896 78.7896L85.5989 79.8508L87.7976 87.7976Z" fill="#267CE2"/>
<path d="M33.8438 50.8125H39.4688V56.4375H33.8438V50.8125Z" fill="#267CE2"/>
<path d="M42.2812 28.125C42.2812 29.7224 41.6309 31.1968 40.4502 32.2771L33.8438 38.324V45.1875H39.4688V40.801L44.2478 36.427C46.5725 34.2993 47.9062 31.2737 47.9062 28.125C47.9062 21.9214 42.8599 16.875 36.6562 16.875C30.4526 16.875 25.4062 21.9214 25.4062 28.125H31.0312C31.0312 25.0232 33.5544 22.5 36.6562 22.5C39.7581 22.5 42.2812 25.0232 42.2812 28.125Z" fill="#267CE2"/>
</svg>
