<svg width="96" height="96" viewBox="0 0 96 96" fill="none" xmlns="http://www.w3.org/2000/svg">
<path d="M95.2097 27.4204L48.8096 0.220318C48.3216 -0.0644945 47.7216 -0.074057 47.2273 0.199505L0.82725 25.7996C0.316875 26.0796 0 26.6171 0 27.1995V94.3995C0 95.2843 0.716812 95.9994 1.59994 95.9994H9.6C10.4831 95.9994 11.1999 95.2843 11.1999 94.3995V38.3996H84.7999V94.3997C84.7999 95.2845 85.515 95.9996 86.3998 95.9996H94.3999C95.2847 95.9996 95.9998 95.2845 95.9998 94.3997V28.7996C96 28.2315 95.6992 27.7067 95.2097 27.4204ZM92.7999 92.7996H87.9999V36.7995C87.9999 35.9164 87.2848 35.1996 86.4 35.1996H9.6C8.71688 35.1996 8.00006 35.9164 8.00006 36.7995V92.7996H3.20006V28.1436L47.976 3.43951L92.7999 29.7163V92.7996Z" fill="#267CE2"/>
<path d="M80.0001 73.5996H60.8001C59.9153 73.5996 59.2001 74.3147 59.2001 75.1995V94.3995C59.2001 95.2843 59.9153 95.9994 60.8001 95.9994H80.0001C80.8849 95.9994 81.6 95.2843 81.6 94.3995V75.1995C81.6 74.3147 80.8849 73.5996 80.0001 73.5996ZM78.3999 92.7996H62.4V76.7996H78.3999V92.7996Z" fill="#267CE2"/>
<path d="M72 75.1995V79.9995H68.8V75.1995H65.5999V81.5994C65.5999 82.4843 66.315 83.1994 67.1999 83.1994H73.5998C74.4846 83.1994 75.1997 82.4843 75.1997 81.5994V75.1995H72Z" fill="#267CE2"/>
<path d="M60.8 73.5996H41.6001C40.7169 73.5996 40.0001 74.3147 40.0001 75.1995V94.3995C40.0001 95.2843 40.7169 95.9994 41.6001 95.9994H60.8C61.6849 95.9994 62.4 95.2843 62.4 94.3995V75.1995C62.4 74.3147 61.6849 73.5996 60.8 73.5996ZM59.1999 92.7996H43.2V76.7996H59.1999V92.7996Z" fill="#267CE2"/>
<path d="M52.8 75.1995V79.9995H49.6V75.1995H46.3999V81.5994C46.3999 82.4843 47.1167 83.1994 47.9998 83.1994H54.3998C55.2846 83.1994 55.9997 82.4843 55.9997 81.5994V75.1995H52.8Z" fill="#267CE2"/>
<path d="M80.0001 54.3996H60.8001C59.9153 54.3996 59.2001 55.1147 59.2001 55.9995V75.1995C59.2001 76.0843 59.9153 76.7994 60.8001 76.7994H80.0001C80.8849 76.7994 81.6 76.0843 81.6 75.1995V55.9995C81.6 55.1147 80.8849 54.3996 80.0001 54.3996ZM78.3999 73.5996H62.4V57.5996H78.3999V73.5996Z" fill="#267CE2"/>
<path d="M72 55.9995V60.7995H68.8V55.9995H65.5999V62.3994C65.5999 63.2842 66.315 63.9994 67.1999 63.9994H73.5998C74.4846 63.9994 75.1997 63.2842 75.1997 62.3994V55.9995H72Z" fill="#267CE2"/>
<path d="M86.4 47.9996H9.59998V51.1997H86.4V47.9996Z" fill="#267CE2"/>
<path d="M86.4 41.5995H9.59998V44.7996H86.4V41.5995Z" fill="#267CE2"/>
<path d="M56 22.3995H40.0001C39.117 22.3995 38.4001 23.1163 38.4001 23.9994V30.3994C38.4001 31.2825 39.117 31.9993 40.0001 31.9993H56C56.8848 31.9993 57.6 31.2825 57.6 30.3994V23.9994C57.6 23.1163 56.8848 22.3995 56 22.3995ZM54.3999 28.7996H41.5998V25.5996H54.3999V28.7996Z" fill="#267CE2"/>
</svg>
